<?xml version="1.0" encoding="UTF-8"?>
<!DOCTYPE svg PUBLIC "-//W3C//DTD SVG 1.1//EN" "http://www.w3.org/Graphics/SVG/1.1/DTD/svg11.dtd">
<!-- Creator: CorelDRAW 2020 (64 Bit) -->
<svg xmlns="http://www.w3.org/2000/svg" xml:space="preserve" width="128.266mm" height="24.8924mm" version="1.1" style="shape-rendering:geometricPrecision; text-rendering:geometricPrecision; image-rendering:optimizeQuality; fill-rule:evenodd; clip-rule:evenodd"
viewBox="0 0 12825.54 2489.03"
 xmlns:xlink="http://www.w3.org/1999/xlink"
 xmlns:xodm="http://www.corel.com/coreldraw/odm/2003">
 <defs>
  <style type="text/css">
   <![CDATA[
    .fil0 {fill:#E50914;fill-rule:nonzero}
   ]]>
  </style>
 </defs>
 <g id="Camada_x0020_1">
  <metadata id="CorelCorpID_0Corel-Layer"/>
  <path class="fil0" d="M369.37 2471.14c-123.12,6.05 -246.25,12.1 -369.37,17.89 0,-410.14 0,-820.27 0,-1230.41 0,-410.14 0,-820.52 0,-1230.91 123.12,0 246.25,0 369.37,0 0,407.37 0,814.73 0,1222.09 0,407.12 0,814.23 0,1221.34zm749.02 -2443.93c82.08,269.05 164.03,537.41 246.25,804.39 81.93,266.08 164.17,531.57 246.25,796.08 0,-266.79 0,-533.58 0,-800.36 0,-266.54 0,-533.58 0,-800.37 123.12,0 246.25,-0.25 369.37,-0.25 0,394.52 0,788.78 0,1183.04 0,394.27 0,788.28 0,1182.54 -133.38,6.81 -265.49,13.36 -397.59,19.4 -85.93,-250.41 -171.98,-502.06 -256.51,-754.52 -84.75,-253.14 -169.3,-507.88 -253.95,-763.34 0,257.22 0,514.94 0,771.91 0,256.96 0,514.18 0,771.15 -124.41,6.05 -247.53,11.84 -370.66,18.14 0,-404.6 0,-808.93 0,-1213.53 0,-404.6 0,-809.18 0,-1214.03 138.52,0 277.04,-0.25 416.84,-0.25zm1612.17 2328.55c-73.1,-385.2 -146.3,-771.39 -219.31,-1159.11 -73.19,-388.7 -146.22,-778.7 -219.32,-1169.94 129.54,-0.25 259.08,-0.25 388.62,-0.25 51.3,302.31 102.59,604.13 153.91,904.66 51.28,300.29 102.6,599.84 153.91,898.88 51.3,-302.31 103.83,-603.88 155.19,-904.66 51.24,-300.04 103.88,-600.09 156.47,-899.37 129.54,0 259.08,0 388.62,0 -75.67,381.16 -150.14,763.58 -224.45,1147.26 -74.45,384.42 -148.78,770.4 -223.16,1157.6 -170.58,8.31 -341.16,16.63 -510.46,24.94zm1267.16 -61.97c0,-377.89 0,-755.78 0,-1133.92 0,-377.89 0,-756.03 0,-1134.18 351.42,-0.25 702.84,-0.5 1055.54,-0.5 0,111.1 0,222.2 0,333.3 -228.29,1.76 -456.59,3.52 -684.88,5.29 0,103.28 0,206.57 0,309.61 0,102.78 0,206.32 0,309.11 166.73,-3.53 333.46,-7.06 500.2,-10.33 0,111.6 0,223.2 0,334.55 -166.74,4.79 -333.47,9.58 -500.2,14.11 0,102.79 0,205.57 0,308.36 0,102.53 0,205.31 0,308.1 228.29,-9.58 456.59,-19.15 684.88,-28.72 0,111.35 0,222.44 0,333.29 -352.7,17.64 -704.12,34.77 -1055.54,51.9zm2540.74 -647.7c2.72,150.64 -43.53,274.94 -133.39,379.65 -62.82,73.2 -146.3,129.75 -255.23,164.76 -60.35,19.4 -128.26,30.66 -206.48,34.52 -146.22,7.22 -266.8,-18.37 -361.68,-77.84 -79.53,-49.86 -142.83,-118.17 -189.82,-207.33 -46.62,-88.44 -73.1,-191.97 -79.51,-310.37 116.71,-11.09 233.42,-22.43 351.42,-34.01 16.67,126.21 54.92,217.17 114.14,271.32 44.66,40.83 94.88,58.58 152.63,54.17 80.77,-6.16 146.41,-43.46 194.94,-112.36 24.56,-34.88 37.2,-83.38 37.2,-144.86 0,-91.19 -43.3,-182.32 -138.52,-264.77 -71.63,-62.01 -184.27,-145.82 -330.89,-265.79 -124,-101.46 -211.11,-195.04 -260.36,-278.88 -54.64,-93.01 -82.08,-196 -82.08,-307.1 0,-199.52 75.06,-352.32 225.73,-454.72 91.74,-62.35 207.77,-92.46 346.28,-92.46 132.11,0 245.01,26.4 339.88,78.6 73.13,40.24 132.05,96.02 177,168.55 44.83,72.32 73.1,155.18 82.08,249.15 -120.56,17.89 -239.84,38.3 -359.12,58.7 -8.98,-88.42 -39.18,-156.29 -85.93,-205.56 -34.05,-35.88 -83.36,-54.4 -146.21,-53.92 -67.96,0.52 -119.1,27.34 -155.19,80.86 -29.31,43.46 -43.61,96.99 -43.61,160.74 0,99.76 48.71,200.82 146.21,302.05 37.16,38.58 92.51,82.9 165.45,134.78 86.09,61.23 143.79,104.15 171.87,128.49 89.91,77.93 160.87,154.83 211.62,232.52 23.63,36.17 42.27,71.07 56.44,102.79 34.56,77.35 54.04,146.88 55.15,208.34zm647.69 -1292.13c-132.1,-1.26 -262.92,-2.27 -393.74,-3.27 0,-108.58 0,-217.42 0,-326.25 384.77,0.26 769.53,0.51 1155.58,0.76 0,111.6 0,223.2 0,334.56 -130.83,-1.01 -261.65,-2.02 -392.47,-3.03 0,312.64 0,625.03 0,937.42 0,312.38 0,624.78 0,937.16 -123.12,-6.05 -246.25,-11.84 -369.38,-17.89 0,-309.86 0,-619.99 0,-929.6 0,-309.87 0,-619.99 0,-929.86zm1386.44 1927.24c-123.12,-6.05 -246.25,-12.1 -369.38,-18.4 0,-372.85 0,-745.7 0,-1118.55 0,-372.85 0,-745.96 0,-1118.81 351.42,0 702.84,0.25 1054.26,0.51 0,114.62 0,229.5 0,344.13 -228.29,-1.77 -456.59,-3.53 -684.88,-5.55 0,103.54 0,207.33 0,310.37 0,103.29 0,206.83 0,310.12 166.74,3.53 333.46,7.05 500.2,10.58 0,114.37 0,228.5 0,342.62 -166.74,-4.54 -333.46,-9.32 -500.2,-14.11 0,159.47 0,319.19 0,478.66 0,159.22 0,318.93 0,478.41zm1952.05 95.47c-337.31,-16.63 -674.62,-33 -1010.66,-49.63 0,-383.43 0,-766.87 0,-1150.29 0,-383.43 0,-767.12 0,-1150.79 123.13,0.25 246.26,0.25 369.38,0.25 0,328.51 0,657.03 0,985.28 0,328.26 0,656.78 0,985.03 212.9,8.82 427.09,17.64 641.28,26.71 0,117.9 0,235.8 0,353.45zm624.61 30.24c-124.41,-5.8 -247.54,-11.84 -370.66,-18.14 0,-393.51 0,-787.02 0,-1180.78 0,-393.51 0,-787.52 0,-1181.28 123.12,0 246.25,0.25 370.66,0.25 0,396.79 0,793.57 0,1190.35 0,396.54 0,793.06 0,1189.6zm1676.3 82.12c-133.39,-6.55 -266.78,-13.1 -398.88,-19.65 -47.46,-131.51 -96.12,-263.3 -142.37,-394.52 -46.09,-130.77 -94.9,-262 -141.08,-392.75 -48.74,127.47 -96.15,254.71 -143.65,381.16 -47.41,126.23 -94.91,252.68 -142.36,378.4 -133.39,-6.56 -266.78,-13.11 -398.88,-19.4 79.51,-197.26 160.5,-395.46 239.84,-593.79 79.68,-199.19 161.6,-399.31 242.4,-600.09 -80.8,-201.54 -162.76,-402.89 -242.4,-603.36 -79.38,-199.83 -160.33,-399.31 -239.84,-597.82 135.95,0 273.19,0 410.42,0 44.89,124.2 91.1,248.89 135.95,373.35 44.93,124.68 92.34,249.91 138.52,374.87 44.89,-123.7 89.83,-248.14 134.67,-372.6 44.93,-124.69 91.06,-249.91 137.23,-375.12 135.96,0 273.19,0 410.43,0 -80.8,203.55 -162.81,406.65 -242.41,608.4 -79.42,201.32 -160.32,402.08 -239.84,602.1 79.52,206.83 160.41,414.65 239.84,622.77 79.59,208.55 161.61,418.2 242.41,628.05z"/>
 </g>
</svg>
